<?xml version="1.0" encoding="UTF-8"?>
<svg id="Layer_1" data-name="Layer 1" xmlns="http://www.w3.org/2000/svg" viewBox="0 0 600 600">
  <defs>
    <style>
      .cls-1 {
        fill: #466eb0;
      }
    </style>
  </defs>
  <path class="cls-1" d="m437.18,305.23c-23.19-31.17-59.93-34.16-59.1-52.14.3-6.48,5.42-12.51,10.61-15.14,18.35-9.31,43.08,21.22,57.21,12.54,6.26-3.85,8.23-14.05,6.37-21.22-5.49-21.17-48.44-32.01-79.13-21.45-4.53,1.56-13.89,4.94-22.43,13.63-10.49,10.67-16.04,25.47-15.71,41.55.87,42.13,49.13,40.65,63.37,70.13,3.59,7.43,8.15,19.94,2.86,30.12-9.74,18.77-52.2,25.95-73.86,10.03-42.06-30.92,13.19-135.16-27.15-161.62-17.74-11.64-51.85-6.85-69.15,9.05-12.27,11.27-22.2,27.78-22.2,27.78,0,0,.05-18.63-6.76-22.3-5.65-3.05-16.81,4.46-23.02,11.51-28.38,32.22,11.73,85.41-15.61,116.71-11.88,13.6-30.19,15.52-35.71,16.09-24.02,2.49-47.28-9.93-57.21-22.64-27.18-34.8,6.94-121.15,59.16-171.68,78.57-76.02,211.98-84.36,302.61-34.83,15.65,8.55,57.2,31.97,84.18,81.28,4.88,8.92,45.28,85.17,14.17,146.79-33.66,66.67-129.21,73-127.1,80.94,2.18,8.21,108.2,16.34,160.23-48.53,49.68-61.94,23.06-157.71-9.12-210.88-32.16-53.13-78.54-78.06-97.79-88.1-106.72-55.65-264.03-49.08-360.49,42.73-48.84,46.48-113.18,143.26-77.27,213.63,20.02,39.22,72.39,72.52,120.32,63.43,23.86-4.52,49.31-19.97,64.21-43.12,26.92-41.84,4.69-85.96,37.11-113.07,4.53-3.78,16.14-13.49,24.84-9.89,20.46,8.46-10.38,76.42,7,148.35,21.25,87.93,98.77,140.94,102,138.4,2.06-1.62-22.64-28.5-42.95-80.54-8.17-20.93-13.06-39.36-16.09-53.14,9.57,4.68,40.13,18.09,76.57,8.45,10.97-2.9,48.43-12.81,59.63-44.7,11.34-32.28-12.07-64.72-14.6-68.13Z"/>
</svg>